# xmcd
#
# Track frame offsets:
#	150
#	15690
#	26994
#	42839
#	56058
#	72341
#	85716
#	100882
#	115791
#	129924
#	146949
#	160190
#
# Disc length: 2285 seconds
#
# Revision: 4
# Processed by: cddbd v1.5.2PL0 Copyright (c) Steve Scherf et al.
# Submitted via: audiograbber 1.83.01
#
DISCID=a208eb0c
DTITLE=Yuri - Yo Te Amo, Te Amo
DYEAR=1983
DGENRE=Latin
TTITLE0=Solos
TTITLE1=Soy Un Garabato
TTITLE2=De Pequeños
TTITLE3=Amor De Cumpleaños
TTITLE4=¡Oh Mamma!
TTITLE5=Y Descubrir Que Te Quiero
TTITLE6=Yo Te Amo, Te Amo (...Se T'amo T'amo)
TTITLE7=Vuelve
TTITLE8=Solos Tu Y Yo
TTITLE9=Canta, Canta
TTITLE10=Necesito De Ti
TTITLE11=Atrapados
EXTD=
EXTT0=
EXTT1=
EXTT2=
EXTT3=
EXTT4=
EXTT5=
EXTT6=
EXTT7=
EXTT8=
EXTT9=
EXTT10=
EXTT11=
PLAYORDER=
